<?xml version="1.0" standalone="no"?>
<!DOCTYPE svg PUBLIC "-//W3C//DTD SVG 20010904//EN"
 "http://www.w3.org/TR/2001/REC-SVG-20010904/DTD/svg10.dtd">
<svg version="1.0" xmlns="http://www.w3.org/2000/svg"
 width="512.000000pt" height="512.000000pt" viewBox="0 0 512.000000 512.000000"
 preserveAspectRatio="xMidYMid meet">

<g transform="translate(0.000000,512.000000) scale(0.100000,-0.100000)"
fill="#000000" stroke="none">
<path d="M1125 4674 c-171 -41 -336 -174 -414 -334 -76 -155 -72 -61 -69
-1658 3 -1326 4 -1431 21 -1485 64 -216 204 -386 392 -477 151 -74 149 -74
638 -78 l437 -3 0 215 0 215 -417 3 -418 3 -51 27 c-234 123 -232 454 4 570
l67 33 197 3 198 4 0 209 0 209 -215 0 -215 0 0 1070 0 1070 1385 0 1385 0 0
-1070 0 -1070 -105 0 -105 0 0 -210 0 -210 105 0 105 0 0 -320 0 -320 -317 -2
-318 -3 -3 -212 -2 -213 441 0 c321 0 453 3 483 12 53 16 118 81 134 134 9 32
12 456 12 1888 0 1647 -2 1851 -16 1884 -19 47 -58 88 -106 113 -36 18 -81 19
-1605 18 -1332 -1 -1577 -3 -1628 -15z"/>
<path d="M1490 3840 l0 -210 215 0 215 0 0 210 0 210 -215 0 -215 0 0 -210z"/>
<path d="M1490 3200 l0 -210 215 0 215 0 0 210 0 210 -215 0 -215 0 0 -210z"/>
<path d="M2355 2036 c-231 -288 -421 -529 -423 -535 -3 -8 89 -11 312 -11
l316 0 0 -640 0 -640 213 2 212 3 3 638 2 637 315 0 c173 0 315 3 315 6 0 5
-803 1016 -839 1057 -4 4 -196 -229 -426 -517z"/>
</g>
</svg>
