<?xml version="1.0" standalone="no"?>
<!DOCTYPE svg PUBLIC "-//W3C//DTD SVG 20010904//EN"
 "http://www.w3.org/TR/2001/REC-SVG-20010904/DTD/svg10.dtd">
<svg version="1.0" xmlns="http://www.w3.org/2000/svg"
 width="1200.000000pt" height="1600.000000pt" viewBox="0 0 1200.000000 1600.000000"
 preserveAspectRatio="xMidYMid meet">

<g transform="translate(0.000000,1600.000000) scale(0.100000,-0.100000)"
fill="#000000" stroke="none">
<path d="M5500 14505 c-1431 -1431 -1495 -1494 -1497 -1463 -20 259 -47 407
-108 594 -266 812 -1034 1364 -1896 1364 -366 0 -756 -112 -1064 -305 -851
-534 -1174 -1631 -746 -2530 163 -342 396 -611 710 -820 l101 -67 0 -3272 0
-3271 -90 -58 c-586 -378 -934 -1043 -907 -1732 21 -508 207 -951 553 -1315
268 -281 645 -491 1019 -569 171 -35 285 -44 489 -38 321 9 560 68 838 208
808 405 1241 1307 1053 2196 -76 362 -262 705 -527 974 -99 100 -255 227 -357
290 l-71 44 0 3272 0 3272 98 63 c500 328 826 863 891 1460 6 54 11 120 11
147 l0 50 1500 -1497 1500 -1497 0 997 0 998 533 0 c329 0 556 -4 593 -11 417
-73 790 -446 863 -863 8 -41 11 -1059 11 -3232 l0 -3172 -101 -67 c-767 -511
-1086 -1448 -787 -2314 146 -424 436 -790 822 -1036 355 -226 829 -337 1257
-295 961 95 1704 838 1799 1799 72 730 -278 1450 -902 1856 l-88 56 0 3193 c0
2175 -3 3227 -11 3302 -63 651 -395 1310 -929 1845 -498 499 -1082 809 -1720
915 -90 15 -196 18 -722 21 l-618 4 -2 1000 -3 999 -1495 -1495z m-3339 -520
c422 -74 750 -402 824 -824 72 -411 -140 -837 -518 -1041 -596 -322 -1334 44
-1452 719 -116 659 487 1262 1146 1146z m0 -10000 c481 -84 839 -505 839 -985
0 -607 -568 -1089 -1161 -985 -609 106 -982 726 -784 1304 156 459 637 748
1106 666z m8000 0 c423 -74 750 -401 824 -824 93 -531 -280 -1051 -824 -1146
-659 -116 -1262 487 -1146 1146 95 544 615 917 1146 824z"/>
</g>
</svg>
